<?xml version="1.0" encoding="utf-8"?>
<!-- Generator: Adobe Illustrator 16.0.3, SVG Export Plug-In . SVG Version: 6.00 Build 0)  -->
<!DOCTYPE svg PUBLIC "-//W3C//DTD SVG 1.1//EN" "http://www.w3.org/Graphics/SVG/1.1/DTD/svg11.dtd" [
	<!ENTITY ns_extend "http://ns.adobe.com/Extensibility/1.0/">
	<!ENTITY ns_ai "http://ns.adobe.com/AdobeIllustrator/10.0/">
	<!ENTITY ns_graphs "http://ns.adobe.com/Graphs/1.0/">
	<!ENTITY ns_vars "http://ns.adobe.com/Variables/1.0/">
	<!ENTITY ns_imrep "http://ns.adobe.com/ImageReplacement/1.0/">
	<!ENTITY ns_sfw "http://ns.adobe.com/SaveForWeb/1.0/">
	<!ENTITY ns_custom "http://ns.adobe.com/GenericCustomNamespace/1.0/">
	<!ENTITY ns_adobe_xpath "http://ns.adobe.com/XPath/1.0/">
]>
<svg version="1.1" id="Ebene_1" xmlns:x="&ns_extend;" xmlns:i="&ns_ai;" xmlns:graph="&ns_graphs;"
	 xmlns="http://www.w3.org/2000/svg" xmlns:xlink="http://www.w3.org/1999/xlink" x="0px" y="0px" width="78px" height="104px"
	 viewBox="0 0 78 104" enable-background="new 0 0 78 104" xml:space="preserve">
<metadata>
	<sfw  xmlns="&ns_sfw;">
		<slices></slices>
		<sliceSourceBounds  width="76.531" height="103.637" y="-371.818" x="391.734" bottomLeftOrigin="true"></sliceSourceBounds>
	</sfw>
</metadata>
<g>
	<linearGradient id="SVGID_1_" gradientUnits="userSpaceOnUse" x1="39" y1="0.4473" x2="39" y2="103.5527">
		<stop  offset="0" style="stop-color:#FFFFFF"/>
		<stop  offset="1" style="stop-color:#999999"/>
	</linearGradient>
	<path fill="url(#SVGID_1_)" stroke="#B3B3B3" stroke-width="0.5315" stroke-miterlimit="10" d="M77,95.41
		c0,4.156-2.846,8.143-7.013,8.143H9.079C4.912,103.553,1,99.566,1,95.41V8.321c0-4.157,3.912-7.874,8.079-7.874h60.908
		C74.154,0.447,77,4.164,77,8.321V95.41z"/>
	<linearGradient id="SVGID_2_" gradientUnits="userSpaceOnUse" x1="39" y1="101.1611" x2="39" y2="2.8389">
		<stop  offset="0" style="stop-color:#808080"/>
		<stop  offset="0.1804" style="stop-color:#CCCCCC"/>
		<stop  offset="0.3608" style="stop-color:#848686"/>
		<stop  offset="0.549" style="stop-color:#FFFFFF"/>
		<stop  offset="0.7216" style="stop-color:#CCF5F5"/>
		<stop  offset="0.9216" style="stop-color:#999999"/>
		<stop  offset="1" style="stop-color:#808080"/>
	</linearGradient>
	<path fill="url(#SVGID_2_)" d="M75.14,94.252c0,3.815-3.093,6.909-6.909,6.909H9.77c-3.816,0-6.909-3.094-6.909-6.909V9.748
		c0-3.815,3.093-6.909,6.909-6.909H68.23c3.816,0,6.909,3.094,6.909,6.909V94.252z"/>
	<linearGradient id="SVGID_3_" gradientUnits="userSpaceOnUse" x1="39" y1="99.832" x2="39" y2="4.168">
		<stop  offset="0" style="stop-color:#FFFB29"/>
		<stop  offset="0.1" style="stop-color:#FFFB08"/>
		<stop  offset="0.4" style="stop-color:#F7E00D"/>
		<stop  offset="0.6" style="stop-color:#F7B51B"/>
		<stop  offset="0.95" style="stop-color:#FAA317"/>
		<stop  offset="1" style="stop-color:#F77816"/>
	</linearGradient>
	<path fill="url(#SVGID_3_)" stroke="#4D4D4D" stroke-width="0.5315" stroke-miterlimit="10" d="M73.812,94.074
		c0,3.18-2.579,5.758-5.759,5.758H9.947c-3.18,0-5.759-2.578-5.759-5.758V9.927c0-3.181,2.579-5.759,5.759-5.759h58.105
		c3.18,0,5.759,2.578,5.759,5.759V94.074z"/>
	<linearGradient id="SVGID_4_" gradientUnits="userSpaceOnUse" x1="39" y1="99.0352" x2="39" y2="5.4961">
		<stop  offset="0" style="stop-color:#FFFB29;stop-opacity:0"/>
		<stop  offset="0.0295" style="stop-color:#FEF227;stop-opacity:0.0295"/>
		<stop  offset="0.1248" style="stop-color:#FBDC23;stop-opacity:0.1248"/>
		<stop  offset="0.2357" style="stop-color:#F9CA1F;stop-opacity:0.2357"/>
		<stop  offset="0.3703" style="stop-color:#F8BE1D;stop-opacity:0.3703"/>
		<stop  offset="0.5532" style="stop-color:#F7B71B;stop-opacity:0.5532"/>
		<stop  offset="1" style="stop-color:#F7B51B"/>
	</linearGradient>
	<path fill="url(#SVGID_4_)" d="M72.482,93.635c0,2.982-2.417,5.4-5.4,5.4H10.918c-2.983,0-5.4-2.418-5.4-5.4V10.896
		c0-2.982,2.417-5.4,5.4-5.4h56.164c2.983,0,5.4,2.418,5.4,5.4V93.635z"/>
	<linearGradient id="SVGID_5_" gradientUnits="userSpaceOnUse" x1="2.8604" y1="10.541" x2="75.1396" y2="10.541">
		<stop  offset="0.1232" style="stop-color:#FFFB29"/>
		<stop  offset="0.2808" style="stop-color:#F7E00D"/>
		<stop  offset="0.5271" style="stop-color:#F77816"/>
		<stop  offset="0.803" style="stop-color:#F7E00D"/>
		<stop  offset="1" style="stop-color:#FFFB29"/>
	</linearGradient>
	<path fill="url(#SVGID_5_)" d="M2.86,16.657C3.613,7.313,6.038,4.246,10.918,4.434h56.164c4.329-0.009,6.896,1.32,8.058,12.224
		H2.86z"/>
	<radialGradient id="SVGID_6_" cx="49.3965" cy="72.4619" r="72.3167" gradientUnits="userSpaceOnUse">
		<stop  offset="0.1571" style="stop-color:#F7E00D"/>
		<stop  offset="0.3466" style="stop-color:#F7E00D"/>
		<stop  offset="0.657" style="stop-color:#F7B51B"/>
		<stop  offset="0.872" style="stop-color:#F77816"/>
	</radialGradient>
	<path fill="url(#SVGID_6_)" d="M72.482,93.992c0,2.785-2.417,5.043-5.4,5.043H10.918c-2.983,0-5.4-2.258-5.4-5.043L3.923,52.266
		L2.86,16.739c0-2.785,2.417-4.865,5.4-4.865h61.479c2.983,0,5.4,2.08,5.4,4.865l-1.594,35.526L72.482,93.992z"/>
	<linearGradient id="SVGID_7_" gradientUnits="userSpaceOnUse" x1="39" y1="99.0352" x2="39" y2="11.874">
		<stop  offset="0" style="stop-color:#FFFB29;stop-opacity:0"/>
		<stop  offset="0.1405" style="stop-color:#FEEA27;stop-opacity:0.1756"/>
		<stop  offset="0.419" style="stop-color:#FBBE20;stop-opacity:0.5238"/>
		<stop  offset="0.8" style="stop-color:#F77816"/>
	</linearGradient>
	<path fill="url(#SVGID_7_)" d="M72.482,93.992c0,2.785-2.417,5.043-5.4,5.043H10.918c-2.983,0-5.4-2.258-5.4-5.043L3.923,52.266
		L2.86,16.739c0-2.785,2.417-4.865,5.4-4.865h61.479c2.983,0,5.4,2.08,5.4,4.865l-1.594,35.526L72.482,93.992z"/>
	<linearGradient id="SVGID_8_" gradientUnits="userSpaceOnUse" x1="38.7344" y1="99.0352" x2="38.7344" y2="4.9648">
		<stop  offset="0" style="stop-color:#F7B51B"/>
		<stop  offset="0.0557" style="stop-color:#F9C21E;stop-opacity:0.9103"/>
		<stop  offset="0.1828" style="stop-color:#FBDB23;stop-opacity:0.7055"/>
		<stop  offset="0.3157" style="stop-color:#FDED26;stop-opacity:0.4914"/>
		<stop  offset="0.457" style="stop-color:#FFF828;stop-opacity:0.2638"/>
		<stop  offset="0.6207" style="stop-color:#FFFB29;stop-opacity:0"/>
	</linearGradient>
	<path fill="none" stroke="url(#SVGID_8_)" stroke-width="0.5315" stroke-miterlimit="10" d="M72.217,93.369
		c0,2.982-2.418,5.4-5.4,5.4H10.652c-2.983,0-5.4-2.418-5.4-5.4V10.631c0-2.982,2.417-5.4,5.4-5.4h56.164c2.982,0,5.4,2.418,5.4,5.4
		V93.369z"/>
	<linearGradient id="SVGID_9_" gradientUnits="userSpaceOnUse" x1="70.5771" y1="98.9365" x2="8.4528" y2="10.2137">
		<stop  offset="0" style="stop-color:#FFFB29;stop-opacity:0"/>
		<stop  offset="0.0188" style="stop-color:#FFFB3A;stop-opacity:0.1159"/>
		<stop  offset="0.0562" style="stop-color:#FFFC66;stop-opacity:0.3456"/>
		<stop  offset="0.1085" style="stop-color:#FFFDAE;stop-opacity:0.6675"/>
		<stop  offset="0.1626" style="stop-color:#FFFFFF"/>
		<stop  offset="0.2126" style="stop-color:#FFFEE3;stop-opacity:0.9218"/>
		<stop  offset="0.3208" style="stop-color:#FFFD9D;stop-opacity:0.7528"/>
		<stop  offset="0.4779" style="stop-color:#FFFB2D;stop-opacity:0.5076"/>
		<stop  offset="0.4828" style="stop-color:#FFFB29;stop-opacity:0.5"/>
		<stop  offset="0.5311" style="stop-color:#FFFC55;stop-opacity:0.5347"/>
		<stop  offset="0.64" style="stop-color:#FFFEC5;stop-opacity:0.6127"/>
		<stop  offset="0.6946" style="stop-color:#FFFFFF;stop-opacity:0.6518"/>
		<stop  offset="0.8517" style="stop-color:#FBBB89;stop-opacity:0.831"/>
		<stop  offset="1" style="stop-color:#F77816"/>
	</linearGradient>
	<path fill="none" stroke="url(#SVGID_9_)" stroke-width="1.0629" stroke-miterlimit="10" d="M72.482,94.258
		c0,2.785-2.417,5.309-5.4,5.309H10.918c-2.983,0-5.4-2.523-5.4-5.309L3.923,52.398L2.86,17.071c0-2.785,2.417-4.666,5.4-4.666
		h61.479c2.983,0,5.4,1.814,5.4,4.6l-1.594,35.526L72.482,94.258z"/>
	<path fill-rule="evenodd" clip-rule="evenodd" fill="#FFFFFF" d="M39.034,91.138c8.955,0,16.204-7.307,16.204-16.244
		c0-8.938-7.249-16.176-16.204-16.176c-9.024,0-16.272,7.237-16.272,16.176C22.762,83.831,30.01,91.138,39.034,91.138L39.034,91.138
		z M39.034,86.03c6.112,0,11.086-4.965,11.086-11.137c0-6.101-4.974-11.138-11.086-11.138c-6.182,0-11.155,5.037-11.155,11.138
		C27.879,81.065,32.853,86.03,39.034,86.03L39.034,86.03z"/>
	<linearGradient id="SVGID_10_" gradientUnits="userSpaceOnUse" x1="39" y1="45.9482" x2="39" y2="19.7715">
		<stop  offset="0" style="stop-color:#CCCCCC"/>
		<stop  offset="0.2608" style="stop-color:#C7C7C7"/>
		<stop  offset="0.5783" style="stop-color:#B8B8B8"/>
		<stop  offset="0.924" style="stop-color:#9F9F9F"/>
		<stop  offset="1" style="stop-color:#999999"/>
	</linearGradient>
	<path fill-rule="evenodd" clip-rule="evenodd" fill="url(#SVGID_10_)" d="M38.999,19.771L38.999,19.771
		c1.392,0,2.658,1.158,2.658,2.626v20.924c0,1.468-1.267,2.627-2.658,2.627l0,0c-1.47,0-2.656-1.159-2.656-2.627V22.397
		C36.343,20.93,37.529,19.771,38.999,19.771L38.999,19.771z"/>
	<linearGradient id="SVGID_11_" gradientUnits="userSpaceOnUse" x1="53.2861" y1="83.1611" x2="24.7064" y2="66.6607">
		<stop  offset="0" style="stop-color:#FFFFFF"/>
		<stop  offset="0.1419" style="stop-color:#D3D3D3"/>
		<stop  offset="0.3714" style="stop-color:#939393"/>
		<stop  offset="0.5802" style="stop-color:#606060"/>
		<stop  offset="0.7612" style="stop-color:#3B3B3B"/>
		<stop  offset="0.9072" style="stop-color:#242424"/>
		<stop  offset="1" style="stop-color:#1C1C1C"/>
	</linearGradient>
	
		<path fill-rule="evenodd" clip-rule="evenodd" fill="none" stroke="url(#SVGID_11_)" stroke-width="0.5315" stroke-miterlimit="10" d="
		M39.034,91.138c8.955,0,16.204-7.307,16.204-16.244c0-8.938-7.249-16.176-16.204-16.176c-9.024,0-16.272,7.237-16.272,16.176
		C22.762,83.831,30.01,91.138,39.034,91.138L39.034,91.138z M39.034,86.03c6.112,0,11.086-4.965,11.086-11.137
		c0-6.101-4.974-11.138-11.086-11.138c-6.182,0-11.155,5.037-11.155,11.138C27.879,81.065,32.853,86.03,39.034,86.03L39.034,86.03z"
		/>
	<linearGradient id="SVGID_12_" gradientUnits="userSpaceOnUse" x1="46.4053" y1="36.9922" x2="32.104" y2="28.7354">
		<stop  offset="0" style="stop-color:#FFFFFF"/>
		<stop  offset="0.2524" style="stop-color:#C4C4C4"/>
		<stop  offset="0.5008" style="stop-color:#919191"/>
		<stop  offset="0.716" style="stop-color:#6C6C6C"/>
		<stop  offset="0.8896" style="stop-color:#555555"/>
		<stop  offset="1" style="stop-color:#4D4D4D"/>
	</linearGradient>
	
		<path fill-rule="evenodd" clip-rule="evenodd" fill="none" stroke="url(#SVGID_12_)" stroke-width="0.5315" stroke-miterlimit="10" d="
		M39.265,19.53L39.265,19.53c1.418,0,2.658,1.18,2.658,2.674v21.31c0,1.496-1.24,2.676-2.658,2.676l0,0
		c-1.497,0-2.656-1.18-2.656-2.676v-21.31C36.608,20.71,37.768,19.53,39.265,19.53L39.265,19.53z"/>
</g>
</svg>
